<?xml version="1.0" standalone="no"?>
<!DOCTYPE svg PUBLIC "-//W3C//DTD SVG 20010904//EN"
 "http://www.w3.org/TR/2001/REC-SVG-20010904/DTD/svg10.dtd">
<svg version="1.0" xmlns="http://www.w3.org/2000/svg"
 width="186.000000pt" height="184.000000pt" viewBox="0 0 186.000000 184.000000"
 preserveAspectRatio="xMidYMid meet">
<metadata>
Created by potrace 1.15, written by Peter Selinger 2001-2017
</metadata>
<g transform="translate(0.000000,184.000000) scale(0.100000,-0.100000)"
fill="#000000" stroke="none">
<path d="M986 1074 c-5 -343 -4 -530 2 -536 5 -5 18 -8 28 -6 18 3 19 22 19
428 l0 425 49 3 c27 2 53 -1 58 -6 5 -5 6 -189 2 -456 l-7 -446 -287 0 -287 0
-6 366 c-3 202 -3 373 0 380 3 8 12 14 21 14 33 0 92 53 115 101 l22 49 107 0
108 0 0 25 0 25 -109 0 -109 0 -10 28 c-14 41 -62 93 -99 108 -152 64 -305
-92 -234 -239 22 -45 83 -97 113 -97 9 0 19 -7 22 -16 3 -9 6 -206 6 -438 0
-417 0 -423 21 -442 20 -18 45 -19 490 -22 l469 -3 0 26 0 25 -150 0 -150 0 0
535 0 535 -81 0 -80 0 3 53 3 52 118 3 117 3 0 24 0 25 -139 0 -138 0 -7 -526z
m161 -660 c2 -7 -3 -19 -12 -28 -14 -14 -51 -16 -285 -16 -231 0 -271 2 -284
16 -17 17 -20 27 -9 37 12 13 586 3 590 -9z"/>
</g>
</svg>
