<?xml version="1.0" standalone="no"?>
<!DOCTYPE svg PUBLIC "-//W3C//DTD SVG 20010904//EN"
 "http://www.w3.org/TR/2001/REC-SVG-20010904/DTD/svg10.dtd">
<svg version="1.0" xmlns="http://www.w3.org/2000/svg"
 width="181.000000pt" height="164.000000pt" viewBox="0 0 181.000000 164.000000"
 preserveAspectRatio="xMidYMid meet">
<metadata>
Created by potrace 1.15, written by Peter Selinger 2001-2017
</metadata>
<g transform="translate(0.000000,164.000000) scale(0.100000,-0.100000)"
fill="#000000" stroke="none">
<path d="M282 1191 c3 -138 5 -151 25 -173 22 -23 23 -32 29 -308 5 -261 7
-287 25 -304 27 -29 86 -27 110 3 18 21 19 45 19 305 0 272 1 282 20 294 36
22 42 58 34 199 -6 116 -9 133 -24 133 -15 0 -18 -16 -23 -136 -3 -75 -9 -140
-14 -144 -4 -4 -34 -10 -65 -14 -85 -9 -88 -4 -88 160 l0 134 -26 0 -25 0 3
-149z m158 -475 c0 -232 -2 -275 -15 -280 -8 -3 -22 2 -31 12 -15 15 -16 35
-11 187 4 93 7 212 7 263 0 91 0 92 25 92 l25 0 0 -274z"/>
<path d="M1450 1299 c-23 -22 -54 -66 -68 -97 -25 -52 -27 -70 -30 -202 -4
-145 -4 -145 22 -169 l26 -24 0 -178 c0 -111 4 -187 11 -203 26 -55 112 -55
138 0 8 17 11 160 11 469 l0 445 -34 0 c-26 0 -43 -9 -76 -41z m60 -229 l0
-210 -43 0 c-24 0 -48 5 -55 12 -18 18 -16 212 3 274 12 41 75 134 91 134 2 0
4 -94 4 -210z m-2 -441 c2 -148 0 -178 -13 -189 -12 -10 -18 -10 -30 0 -12 10
-15 44 -15 185 0 94 3 175 7 179 4 4 16 6 28 4 19 -3 20 -10 23 -179z"/>
<path d="M786 1206 c-105 -44 -177 -118 -216 -223 -17 -46 -21 -74 -18 -138 6
-143 85 -262 216 -323 49 -23 70 -27 152 -27 82 0 103 4 152 27 79 37 142 98
181 177 29 60 32 74 32 161 0 87 -3 101 -32 161 -39 79 -102 140 -181 177 -83
39 -204 42 -286 8z m265 -58 c71 -32 124 -86 158 -157 54 -115 27 -264 -64
-356 -122 -121 -328 -121 -450 0 -79 80 -114 213 -81 313 64 191 261 282 437
200z"/>
<path d="M865 1091 c-111 -29 -179 -116 -179 -231 0 -138 96 -234 234 -234
138 0 234 96 234 234 0 95 -44 169 -125 210 -42 22 -121 32 -164 21z m110 -52
c53 -15 110 -73 125 -128 50 -186 -176 -318 -311 -182 -98 98 -62 260 68 306
47 17 67 18 118 4z"/>
</g>
</svg>
