<?xml version="1.0" standalone="no"?>
<!DOCTYPE svg PUBLIC "-//W3C//DTD SVG 20010904//EN"
 "http://www.w3.org/TR/2001/REC-SVG-20010904/DTD/svg10.dtd">
<svg version="1.0" xmlns="http://www.w3.org/2000/svg"
 width="195.000000pt" height="181.000000pt" viewBox="0 0 195.000000 181.000000"
 preserveAspectRatio="xMidYMid meet">
<metadata>
Created by potrace 1.15, written by Peter Selinger 2001-2017
</metadata>
<g transform="translate(0.000000,181.000000) scale(0.100000,-0.100000)"
fill="#000000" stroke="none">
<path d="M598 1357 c-182 -77 -272 -275 -209 -458 37 -108 138 -275 276 -453
55 -71 71 -86 79 -74 6 7 38 50 72 93 143 188 237 348 269 460 48 163 -39 348
-200 425 -75 36 -209 40 -287 7z m222 -205 c95 -71 94 -213 -2 -272 -40 -24
-116 -27 -157 -5 -45 23 -79 71 -87 120 -19 131 142 233 246 157z"/>
<path d="M1196 975 c-41 -22 -55 -44 -56 -88 0 -84 38 -107 177 -107 114 0
161 -11 203 -47 85 -71 90 -196 11 -274 -20 -20 -54 -42 -76 -48 -24 -6 -134
-11 -272 -11 l-233 0 0 -26 0 -25 258 3 c241 3 260 4 297 25 86 46 129 117
129 213 0 73 -23 127 -71 171 -55 52 -90 62 -218 67 -66 2 -128 8 -137 14 -24
12 -23 60 0 81 14 13 38 17 90 17 70 0 72 1 72 25 0 24 -2 25 -72 25 -46 0
-84 -6 -102 -15z"/>
</g>
</svg>
